
<svg width="12" height="12" viewBox="0 0 12 12" fill="none" xmlns="http://www.w3.org/2000/svg">
<rect width="12" height="12" rx="6" fill="#17161A"/>
<g clip-path="url(#clip0_4940_119)">
<path d="M9.66665 6L8.85331 5.07L8.96665 3.84L7.76331 3.56667L7.13331 2.5L5.99998 2.98667L4.86665 2.5L4.23665 3.56333L3.03331 3.83333L3.14665 5.06667L2.33331 6L3.14665 6.93L3.03331 8.16333L4.23665 8.43667L4.86665 9.5L5.99998 9.01L7.13331 9.49667L7.76331 8.43333L8.96665 8.16L8.85331 6.93L9.66665 6ZM5.12665 7.33667L4.33331 6.53667C4.30241 6.50583 4.2779 6.4692 4.26117 6.42887C4.24444 6.38855 4.23583 6.34532 4.23583 6.30167C4.23583 6.25801 4.24444 6.21478 4.26117 6.17446C4.2779 6.13413 4.30241 6.0975 4.33331 6.06667L4.35665 6.04333C4.48665 5.91333 4.69998 5.91333 4.82998 6.04333L5.36665 6.58333L7.08331 4.86333C7.21331 4.73333 7.42665 4.73333 7.55665 4.86333L7.57998 4.88667C7.70998 5.01667 7.70998 5.22667 7.57998 5.35667L5.60665 7.33667C5.46998 7.46667 5.25998 7.46667 5.12665 7.33667Z" fill="url(#paint0_linear_4940_119)"/>
<path d="M5.12665 7.33667L4.33332 6.53667C4.30242 6.50583 4.2779 6.4692 4.26118 6.42888C4.24445 6.38856 4.23584 6.34533 4.23584 6.30167C4.23584 6.25802 4.24445 6.21479 4.26118 6.17446C4.2779 6.13414 4.30242 6.09751 4.33332 6.06667L4.35665 6.04334C4.48665 5.91334 4.69999 5.91334 4.82999 6.04334L5.36666 6.58334L7.08332 4.86334C7.21332 4.73334 7.42666 4.73334 7.55666 4.86334L7.57999 4.88667C7.70999 5.01667 7.70999 5.22667 7.57999 5.35667L5.60666 7.33667C5.46999 7.46667 5.25999 7.46667 5.12665 7.33667Z" fill="#F5F8FA"/>
</g>
<defs>
<linearGradient id="paint0_linear_4940_119" x1="2.33331" y1="2.5" x2="9.68287" y2="2.51708" gradientUnits="userSpaceOnUse">
<stop stop-color="#DDA0DD" />
<stop offset="1" stop-color="#FFB6C1" />
</linearGradient>
<clipPath id="clip0_4940_119">
<rect x="2" y="2" width="8" height="8" rx="4" fill="white"/>
</clipPath>
</defs>
</svg>
